<?xml version="1.0" encoding="utf-8"?>
<!-- Generator: Adobe Illustrator 16.0.0, SVG Export Plug-In . SVG Version: 6.00 Build 0)  -->
<!DOCTYPE svg PUBLIC "-//W3C//DTD SVG 1.1//EN" "http://www.w3.org/Graphics/SVG/1.1/DTD/svg11.dtd">
<svg version="1.1" id="Layer_1" xmlns="http://www.w3.org/2000/svg" xmlns:xlink="http://www.w3.org/1999/xlink" x="0px" y="0px"
	 width="377px" height="174px" viewBox="0 0 377 174" enable-background="new 0 0 377 174" xml:space="preserve">
<g>
	<text transform="matrix(1 0 0 1 161.2837 84.0186)"><tspan x="0" y="0" fill="#1E1E1E" font-family="'MicrosoftYaHei-Bold'" font-size="40.7341" letter-spacing="12">D</tspan><tspan x="44.461" y="0" fill="#1E1E1E" font-family="'MicrosoftYaHei-Bold'" font-size="40.7341" letter-spacing="12">R</tspan><tspan x="85.083" y="0" fill="#1E1E1E" font-family="'MicrosoftYaHei-Bold'" font-size="40.7341" letter-spacing="12">ES</tspan><tspan x="157.318" y="0" fill="#1E1E1E" font-family="'MicrosoftYaHei-Bold'" font-size="40.7341">S</tspan></text>
	<text transform="matrix(1 0 0 1 161.2837 129.6807)"><tspan x="0" y="0" fill="#1E1E1E" font-family="'MicrosoftYaHeiLight'" font-size="40.7341" letter-spacing="6">ME</tspan><tspan x="71.588" y="0" fill="#1E1E1E" font-family="'MicrosoftYaHeiLight'" font-size="40.7341" letter-spacing="6"> </tspan><tspan x="90.159" y="0" fill="#1E1E1E" font-family="'MicrosoftYaHeiLight'" font-size="40.7341" letter-spacing="6">P</tspan><tspan x="120.563" y="0" fill="#1E1E1E" font-family="'MicrosoftYaHeiLight'" font-size="40.7341" letter-spacing="6">R</tspan><tspan x="151.505" y="0" fill="#1E1E1E" font-family="'MicrosoftYaHeiLight'" font-size="40.7341">O</tspan></text>
	<path fill="#1E1E1E" d="M77.006,57.921c-6.644,7.723-13.783,14.443-24.086,16.464c-7.003,1.373-13.506,0.457-18.945-4.407
		c-3.586-3.207-3.509-8.839-0.21-12.048c3.247-3.161,6.328-2.882,10.164,1.126c-1.331,2.141-5.932-0.994-5.805,3.318
		c0.049,1.695,0.685,3.078,2.302,3.799c3.07,1.369,5.104-0.564,7.176-2.328c3.129-2.658,5.148-6.197,7.523-9.459
		c5.746-7.887,10.364-9.522,19.723-6.859c1.821,0.518,3.348,0.473,5.183-0.066c8.744-2.557,13.193-1.001,18.731,6.227
		c1.501,1.956,2.869,4.02,4.406,5.949c1.256,1.576,2.516,3.211,4.056,4.48c2.23,1.843,4.712,3.963,7.717,1.484
		c1.139-0.943,2.314-2.473,1.45-4.164c-1.852-3.627-4.773-0.066-7.456-0.884c1.548-3.755,4.221-5.166,7.938-4.667
		c3.295,0.442,5.011,2.711,5.934,5.702c1.138,3.685-0.21,6.618-2.901,9.045c-5.895,5.32-17.947,5.521-26.804,0.858
		C86.81,68.18,82.81,62.235,77.006,57.921"/>
	<path fill="#1E1E1E" d="M141.114,37.767V140.03c-0.259,0-0.518,0.002-0.777,0.002V37.767
		C140.597,37.767,140.855,37.767,141.114,37.767"/>
	<path fill="#1E1E1E" d="M7.617,166.428h363.667V8.703H7.617V166.428z M365.876,161.021H13.024V14.11h352.852V161.021z"/>
	<polygon fill="#1E1E1E" points="66.426,105.226 66.426,123.616 43.443,128.798 38.486,114.379 43.646,99.392 	"/>
	<polygon fill="#1E1E1E" points="87.155,105.226 87.155,123.616 110.138,128.798 115.095,114.379 109.935,99.392 	"/>
	<linearGradient id="SVGID_2_" gradientUnits="userSpaceOnUse" x1="76.7339" y1="106.7744" x2="76.7339" y2="121.9834">
		<stop  offset="0" style="stop-color:#F3CA7A"/>
		<stop  offset="0.5123" style="stop-color:#D8A95C"/>
		<stop  offset="1" style="stop-color:#B48B4E"/>
	</linearGradient>
	<rect x="68.793" y="106.774" fill="url(#SVGID_2_)" width="15.881" height="15.209"/>
</g>
</svg>
