<svg width="6.3499998" height="6.3499998" xmlns="http://www.w3.org/2000/svg">

 <g>
  <title>background</title>
  <rect fill="none" id="canvas_background" height="402" width="582" y="-1" x="-1"/>
 </g>
 <g>
  <title>Layer 1</title>
  <path clip-rule="nonzero" fill="#ffc956" fill-rule="nonzero" stroke-width="0.529167" stroke-linecap="round" stroke-linejoin="round" stroke-miterlimit="4" stroke-dashoffset="0" id="path1794-7" d="m3.17581,1.74805c-0.50033,0 -0.91211,0.41177 -0.91211,0.91211c0,0.50033 0.41178,0.91211 0.91211,0.91211c0.50034,0 0.91016,-0.41178 0.91016,-0.91211c0,-0.50034 -0.40982,-0.91211 -0.91016,-0.91211zm0,0.52929c0.21435,0 0.38086,0.16847 0.38086,0.38282c0,0.21435 -0.16651,0.38281 -0.38086,0.38281c-0.21435,0 -0.38281,-0.16846 -0.38281,-0.38281c0,-0.21435 0.16846,-0.38282 0.38281,-0.38282z"/>
  <path clip-rule="nonzero" fill="#ffc956" fill-rule="nonzero" stroke-width="0.529167" stroke-linecap="round" stroke-linejoin="round" stroke-miterlimit="4" stroke-dashoffset="0" id="circle1796-6" d="m3.17581,3.91016c-0.80119,0 -1.49945,0.55679 -1.67773,1.33789a0.26461,0.26461 0 1 0 0.51562,0.11718c0.124,-0.54326 0.60487,-0.92578 1.16211,-0.92578c0.55726,0 1.03618,0.38249 1.16016,0.92578a0.26461,0.26461 0 1 0 0.51562,-0.11718c-0.17824,-0.78114 -0.87456,-1.33789 -1.67578,-1.33789z"/>
  <path clip-rule="nonzero" fill="#0f0f16" fill-rule="nonzero" stroke-width="0.529167" stroke-linecap="round" stroke-linejoin="round" stroke-miterlimit="4" stroke-dashoffset="0" id="circle2608" d="m1.46878,0.79297c-0.50033,0 -0.91016,0.41177 -0.91016,0.91211c0,0.50033 0.40983,0.91211 0.91016,0.91211c0.50033,0 0.91211,-0.41178 0.91211,-0.91211c0,-0.50034 -0.41178,-0.91211 -0.91211,-0.91211zm0,0.5293c0.21435,0 0.38281,0.16846 0.38281,0.38281c0,0.21435 -0.16846,0.38281 -0.38281,0.38281c-0.21435,0 -0.38086,-0.16846 -0.38086,-0.38281c0,-0.21435 0.16651,-0.38281 0.38086,-0.38281z"/>
  <path clip-rule="nonzero" fill="#0f0f16" fill-rule="nonzero" stroke-width="0.529167" stroke-linecap="round" stroke-linejoin="round" stroke-miterlimit="4" stroke-dashoffset="0" id="circle2616" d="m4.91019,0.79297c-0.50034,0 -0.91211,0.41177 -0.91211,0.91211c0,0.50033 0.41177,0.91211 0.91211,0.91211c0.50033,0 0.91015,-0.41178 0.91015,-0.91211c0,-0.50034 -0.40982,-0.91211 -0.91015,-0.91211zm0,0.5293c0.21435,0 0.38086,0.16846 0.38086,0.38281c0,0.21435 -0.16651,0.38281 -0.38086,0.38281c-0.21435,0 -0.38282,-0.16846 -0.38282,-0.38281c0,-0.21435 0.16847,-0.38281 0.38282,-0.38281z"/>
  <path clip-rule="nonzero" fill="#0f0f16" fill-rule="nonzero" stroke-width="0.529167" stroke-linecap="round" stroke-linejoin="round" stroke-miterlimit="4" stroke-dashoffset="0" id="svg_2" d="m1.408943,2.69706c-0.517161,0 -0.967881,0.42113 -1.082959,1.011917a0.170803,0.200139 0 1 0 0.332828,0.088629c0.080041,-0.410896 0.390438,-0.700217 0.750131,-0.700217c0.359706,0 0.668844,0.289298 0.748872,0.700217a0.170803,0.200139 0 1 0 0.332828,-0.088629c-0.115052,-0.590818 -0.56452,-1.011917 -1.0817,-1.011917z"/>
  <path clip-rule="nonzero" fill="#0f0f16" fill-rule="nonzero" stroke-width="0.529167" stroke-linecap="round" stroke-linejoin="round" stroke-miterlimit="4" stroke-dashoffset="0" id="svg_3" d="m4.933119,2.705911c-0.50454,0 -0.944258,0.418188 -1.056528,1.004832a0.166634,0.198733 0 1 0 0.3247,0.088011c0.078088,-0.408015 0.380912,-0.695317 0.731828,-0.695317c0.350927,0 0.652515,0.287272 0.730593,0.695317a0.166634,0.198733 0 1 0 0.3247,-0.088011c-0.11224,-0.586674 -0.550743,-1.004832 -1.055293,-1.004832z"/>
 </g>
</svg>