<svg width="269" height="162" viewBox="0 0 269 162" fill="none" xmlns="http://www.w3.org/2000/svg">
<g clip-path="url(#clip0)">
<path d="M51.33 36.41C46.42 42.12 41.14 47.09 33.51 48.59C28.33 49.61 23.52 48.93 19.5 45.33C16.85 42.96 16.9 38.79 19.34 36.42C21.74 34.08 24.02 34.29 26.86 37.25C25.88 38.83 22.47 36.51 22.57 39.7C22.61 40.95 23.08 41.98 24.27 42.51C26.54 43.52 28.04 42.09 29.58 40.79C31.9 38.82 33.39 36.21 35.15 33.79C39.4 27.96 42.82 26.75 49.74 28.72C51.09 29.1 52.22 29.07 53.57 28.67C60.04 26.78 63.33 27.93 67.42 33.27C68.53 34.72 69.54 36.24 70.68 37.67C71.61 38.84 72.54 40.05 73.68 40.98C75.33 42.34 77.17 43.91 79.39 42.08C80.23 41.38 81.1 40.25 80.46 39C79.09 36.32 76.93 38.95 74.95 38.35C76.09 35.57 78.07 34.53 80.82 34.9C83.26 35.23 84.53 36.91 85.21 39.12C86.05 41.84 85.05 44.01 83.06 45.81C78.7 49.75 69.78 49.89 63.23 46.44C58.58 43.99 55.62 39.6 51.33 36.41Z" fill="#3D3D3D"/>
<g clip-path="url(#clip1)">
<path d="M98.37 117.73C98.5799 117.73 98.75 92.2505 98.75 60.82C98.75 29.3895 98.5799 3.91 98.37 3.91C98.1601 3.91 97.99 29.3895 97.99 60.82C97.99 92.2505 98.1601 117.73 98.37 117.73Z" fill="#3D3D3D"/>
</g>
<path d="M0 0V116.67H269V0H0ZM265 112.67H4V4H265V112.67Z" fill="#313334"/>
<path d="M43.5 71.4V85L26.5 88.83L22.83 78.17L26.65 67.08L43.5 71.4Z" fill="#3D3D3D"/>
<path d="M58.83 71.4V85L75.83 88.83L79.5 78.17L75.68 67.08L58.83 71.4Z" fill="#3D3D3D"/>
<path d="M56.75 72.29H45.5V84.04H56.75V72.29Z" fill="#E1AF68"/>
<path d="M116.29 54.42V31.73H124.13C132.19 31.73 136.22 35.42 136.22 42.79C136.22 46.3 135.09 49.11 132.84 51.23C130.59 53.35 127.67 54.42 124.11 54.42H116.29V54.42ZM121.12 35.68V50.46H123.76C126.05 50.46 127.86 49.78 129.16 48.41C130.46 47.04 131.12 45.19 131.12 42.86C131.12 40.6 130.44 38.84 129.07 37.58C127.7 36.32 125.93 35.68 123.74 35.68H121.12V35.68Z" fill="#313334"/>
<path d="M167.76 54.42H162.19L158.63 48.52C157.9 47.3 157.3 46.51 156.83 46.16C156.36 45.81 155.86 45.63 155.34 45.63H153.88V54.42H149.05V31.73H157C162.4 31.73 165.1 33.78 165.1 37.88C165.1 39.42 164.65 40.75 163.75 41.85C162.85 42.95 161.6 43.73 160.02 44.18V44.24C161.06 44.59 162.22 45.74 163.49 47.7L167.76 54.42ZM153.87 35.4V41.93H156.24C157.37 41.93 158.28 41.6 158.97 40.94C159.66 40.28 160 39.46 160 38.47C160 36.42 158.77 35.39 156.32 35.39H153.87V35.4Z" fill="#313334"/>
<path d="M192.41 54.42H178.98V31.73H191.89V35.69H183.82V41.04H191.32V44.98H183.82V50.47H192.42V54.42H192.41Z" fill="#313334"/>
<path d="M204.09 48.7C205.92 50.21 207.99 50.97 210.32 50.97C211.64 50.97 212.63 50.74 213.29 50.29C213.95 49.84 214.29 49.25 214.29 48.54C214.29 47.92 214.03 47.34 213.5 46.8C212.97 46.26 211.58 45.51 209.33 44.57C205.79 43.07 204.01 40.88 204.01 38.01C204.01 35.9 204.81 34.26 206.42 33.1C208.03 31.93 210.15 31.35 212.8 31.35C215.02 31.35 216.88 31.64 218.38 32.21V36.75C216.86 35.71 215.07 35.2 213.03 35.2C211.84 35.2 210.89 35.42 210.17 35.85C209.45 36.28 209.1 36.87 209.1 37.6C209.1 38.19 209.34 38.73 209.83 39.22C210.32 39.71 211.52 40.38 213.45 41.22C215.71 42.19 217.26 43.21 218.1 44.28C218.94 45.35 219.37 46.63 219.37 48.12C219.37 50.3 218.6 51.96 217.06 53.1C215.52 54.24 213.32 54.81 210.48 54.81C207.88 54.81 205.75 54.39 204.09 53.55V48.7V48.7Z" fill="#313334"/>
<path d="M231.14 48.7C232.97 50.21 235.04 50.97 237.37 50.97C238.69 50.97 239.68 50.74 240.34 50.29C241 49.84 241.34 49.25 241.34 48.54C241.34 47.92 241.08 47.34 240.55 46.8C240.02 46.26 238.63 45.51 236.38 44.57C232.84 43.07 231.06 40.88 231.06 38.01C231.06 35.9 231.86 34.26 233.47 33.1C235.08 31.93 237.2 31.35 239.85 31.35C242.07 31.35 243.93 31.64 245.43 32.21V36.75C243.91 35.71 242.12 35.2 240.08 35.2C238.89 35.2 237.94 35.42 237.22 35.85C236.5 36.28 236.15 36.87 236.15 37.6C236.15 38.19 236.39 38.73 236.88 39.22C237.37 39.71 238.57 40.38 240.5 41.22C242.76 42.19 244.31 43.21 245.15 44.28C245.99 45.35 246.42 46.63 246.42 48.12C246.42 50.3 245.65 51.96 244.11 53.1C242.57 54.24 240.37 54.81 237.53 54.81C234.93 54.81 232.8 54.39 231.14 53.55V48.7V48.7Z" fill="#313334"/>
<path d="M136.24 88.04V71.94C136.24 71.55 136.3 70.44 136.42 68.6H136.36C136.03 69.45 135.75 70.11 135.54 70.58L127.47 88.04H126.96L118.86 70.67C118.6 70.11 118.35 69.4 118.11 68.53H118.04C118.12 69.55 118.16 70.56 118.16 71.56V88.04H116.59V65.35H118.04L126.51 83.63C126.56 83.73 126.62 83.87 126.69 84.05C126.75 84.23 126.82 84.41 126.9 84.59C127.01 84.86 127.11 85.17 127.22 85.5H127.32L127.5 85C127.51 84.95 127.69 84.45 128.04 83.49L136.38 65.34H137.77V88.03H136.24V88.04Z" fill="#313334"/>
<path d="M148.36 88.04V65.35H158.95V66.8H149.93V75.9H158.31V77.32H149.93V86.62H159.48V88.04H148.36V88.04Z" fill="#313334"/>
<path d="M184.61 78.94V88.04H183.04V65.35H188.5C190.83 65.35 192.62 65.89 193.85 66.98C195.08 68.07 195.7 69.64 195.7 71.71C195.7 73.82 195.01 75.55 193.63 76.91C192.25 78.27 190.32 78.95 187.84 78.95H184.61V78.94ZM184.61 66.8V77.51H187.83C189.87 77.51 191.43 77.02 192.5 76.05C193.57 75.07 194.1 73.69 194.1 71.9C194.1 68.5 192.14 66.8 188.23 66.8H184.61Z" fill="#313334"/>
<path d="M217.07 88.04L214.05 81.39C213.42 80.02 212.8 79.1 212.18 78.64C211.56 78.18 210.78 77.94 209.84 77.94H207.03V88.05H205.46V65.35H211.76C213.76 65.35 215.33 65.89 216.48 66.98C217.63 68.07 218.19 69.49 218.19 71.26C218.19 72.9 217.72 74.27 216.78 75.36C215.84 76.45 214.53 77.16 212.84 77.48V77.54C213.74 77.9 214.61 78.99 215.46 80.81L218.83 88.05H217.07V88.04ZM207.03 66.8V76.51H210.93C212.67 76.51 214.05 76.06 215.06 75.15C216.07 74.24 216.58 73 216.58 71.41C216.58 69.96 216.12 68.83 215.2 68.02C214.28 67.21 212.97 66.8 211.26 66.8H207.03Z" fill="#313334"/>
<path d="M237.58 88.44C234.38 88.44 231.82 87.38 229.92 85.25C228.02 83.12 227.06 80.35 227.06 76.94C227.06 73.32 228.04 70.42 229.99 68.24C231.94 66.06 234.61 64.97 238 64.97C241.06 64.97 243.53 66.02 245.43 68.11C247.33 70.2 248.27 72.95 248.27 76.35C248.27 80.1 247.3 83.05 245.36 85.2C243.42 87.35 240.84 88.44 237.58 88.44ZM237.75 66.4C235.11 66.4 232.94 67.35 231.24 69.26C229.53 71.17 228.68 73.67 228.68 76.75C228.68 79.88 229.49 82.36 231.1 84.21C232.71 86.06 234.86 86.99 237.56 86.99C240.36 86.99 242.58 86.07 244.22 84.24C245.85 82.41 246.67 79.86 246.67 76.59C246.67 73.39 245.87 70.89 244.28 69.09C242.67 67.3 240.5 66.4 237.75 66.4Z" fill="#313334"/>
<path d="M43.59 160.63H40.35L38.04 154.42H28.59L26.41 160.63H23.17L31.81 137.94H34.94L43.59 160.63ZM37.13 151.85L33.7 142.42C33.59 142.12 33.48 141.59 33.35 140.84H33.28C33.17 141.52 33.05 142.05 32.91 142.42L29.51 151.85H37.13Z" fill="#313334"/>
<path d="M65.37 160.63H62.5V157.93H62.44C61.26 159.98 59.42 161.01 56.93 161.01C54.88 161.01 53.25 160.28 52.04 158.82C50.83 157.36 50.22 155.39 50.22 152.91C50.22 150.23 50.9 148.09 52.27 146.47C53.64 144.85 55.42 144.05 57.63 144.05C59.84 144.05 61.44 144.91 62.43 146.63H62.49V136.65H65.36V160.63H65.37ZM62.51 150.99C62.51 149.69 62.08 148.61 61.23 147.73C60.37 146.86 59.32 146.42 58.07 146.42C56.55 146.42 55.35 146.99 54.47 148.13C53.59 149.27 53.15 150.82 53.15 152.78C53.15 154.59 53.57 156.02 54.42 157.07C55.27 158.12 56.39 158.64 57.8 158.64C59.19 158.64 60.32 158.13 61.2 157.1C62.08 156.07 62.52 154.79 62.52 153.25V150.99H62.51Z" fill="#313334"/>
<path d="M98.61 160.63H95.74V151.33C95.74 149.57 95.47 148.32 94.92 147.56C94.37 146.8 93.47 146.42 92.22 146.42C91.17 146.42 90.26 146.91 89.51 147.9C88.76 148.89 88.38 150.05 88.38 151.4V160.63H85.51V151.04C85.51 147.96 84.32 146.43 81.95 146.43C80.86 146.43 79.95 146.9 79.23 147.84C78.51 148.78 78.15 149.97 78.15 151.43V160.64H75.28V144.44H78.15V147H78.21C79.36 145.04 81.05 144.06 83.26 144.06C84.34 144.06 85.3 144.36 86.13 144.95C86.96 145.54 87.54 146.35 87.86 147.37C89.06 145.16 90.86 144.06 93.25 144.06C96.81 144.06 98.6 146.26 98.6 150.65V160.63H98.61Z" fill="#313334"/>
<path d="M107.85 138.71C107.85 138.2 108.02 137.78 108.37 137.43C108.72 137.08 109.14 136.91 109.65 136.91C110.17 136.91 110.6 137.08 110.96 137.42C111.32 137.76 111.5 138.19 111.5 138.71C111.5 139.22 111.32 139.64 110.96 139.98C110.6 140.32 110.17 140.48 109.65 140.48C109.13 140.48 108.7 140.31 108.36 139.98C108.02 139.65 107.85 139.22 107.85 138.71ZM108.19 160.63V144.43H111.06V160.63H108.19Z" fill="#313334"/>
<path d="M134.68 160.63H131.82V151.42C131.82 148.09 130.6 146.42 128.17 146.42C126.91 146.42 125.88 146.89 125.06 147.83C124.24 148.77 123.84 149.95 123.84 151.39V160.63H120.97V144.43H123.84V147.11H123.9C125.12 145.07 126.89 144.05 129.22 144.05C131 144.05 132.35 144.62 133.28 145.76C134.21 146.9 134.67 148.55 134.67 150.73V160.63H134.68Z" fill="#313334"/>
<path d="M159.87 151.53V160.63H158.3V137.94H163.76C166.09 137.94 167.88 138.48 169.11 139.57C170.34 140.66 170.96 142.23 170.96 144.3C170.96 146.41 170.27 148.14 168.89 149.5C167.51 150.86 165.58 151.54 163.1 151.54H159.87V151.53ZM159.87 139.39V150.1H163.09C165.13 150.1 166.69 149.61 167.76 148.64C168.83 147.66 169.36 146.28 169.36 144.49C169.36 141.09 167.4 139.39 163.49 139.39H159.87Z" fill="#313334"/>
<path d="M188.5 160.63V157.39H188.44C187.92 158.49 187.17 159.38 186.18 160.03C185.19 160.68 184.1 161.02 182.9 161.02C181.36 161.02 180.14 160.59 179.24 159.72C178.34 158.85 177.89 157.76 177.89 156.45C177.89 153.62 179.77 151.91 183.52 151.32L188.5 150.57C188.5 147.09 187.19 145.36 184.57 145.36C182.79 145.36 181.06 146.08 179.37 147.51V145.75C179.97 145.27 180.78 144.86 181.81 144.53C182.84 144.2 183.81 144.02 184.72 144.02C186.39 144.02 187.68 144.54 188.59 145.57C189.5 146.6 189.95 148.11 189.95 150.08V160.61H188.5V160.63ZM184.05 152.56C182.35 152.8 181.16 153.2 180.47 153.74C179.78 154.28 179.44 155.17 179.44 156.4C179.44 157.36 179.76 158.15 180.4 158.77C181.04 159.39 181.93 159.7 183.07 159.7C184.62 159.7 185.92 159.12 186.95 157.97C187.98 156.82 188.5 155.33 188.5 153.5V151.92L184.05 152.56Z" fill="#313334"/>
<path d="M210.65 160.63V151.2C210.65 147.31 209.25 145.37 206.45 145.37C204.89 145.37 203.6 145.94 202.6 147.08C201.6 148.22 201.09 149.64 201.09 151.33V160.63H199.64V144.43H201.09V147.37H201.16C202.34 145.14 204.19 144.03 206.7 144.03C208.45 144.03 209.79 144.61 210.71 145.78C211.63 146.95 212.1 148.61 212.1 150.77V160.63H210.65Z" fill="#313334"/>
<path d="M222.13 152.59C222.13 154.82 222.64 156.56 223.67 157.81C224.7 159.06 226.11 159.69 227.9 159.69C229.72 159.69 231.49 159.02 233.22 157.68V159.23C231.54 160.42 229.67 161.02 227.61 161.02C225.52 161.02 223.83 160.27 222.54 158.77C221.25 157.27 220.61 155.16 220.61 152.43C220.61 150.07 221.28 148.07 222.63 146.45C223.98 144.83 225.73 144.02 227.87 144.02C229.88 144.02 231.43 144.73 232.51 146.14C233.59 147.55 234.13 149.48 234.13 151.93V152.57H222.13V152.59ZM232.6 151.27C232.53 149.39 232.08 147.94 231.25 146.91C230.42 145.88 229.27 145.36 227.81 145.36C226.29 145.36 225.03 145.87 224.03 146.88C223.03 147.89 222.42 149.36 222.18 151.26H232.6V151.27Z" fill="#313334"/>
<path d="M242.94 160.63V136.65H244.39V160.63H242.94Z" fill="#313334"/>
</g>
<defs>
<clipPath id="clip0">
<rect width="269" height="161.02" fill="white"/>
</clipPath>
<clipPath id="clip1">
<rect width="0.58" height="75.64" fill="white" transform="translate(98.08 23)"/>
</clipPath>
</defs>
</svg>
