<svg width="6.3499998" height="6.3499998" xmlns="http://www.w3.org/2000/svg">

 <g>
  <title>background</title>
  <rect fill="none" id="canvas_background" height="402" width="582" y="-1" x="-1"/>
 </g>
 <g>
  <title>Layer 1</title>
  <path clip-rule="nonzero" fill="#ffc956" fill-rule="nonzero" stroke-width="0.529167" stroke-linecap="round" stroke-linejoin="round" stroke-miterlimit="4" stroke-dashoffset="0" id="path1794-6" d="m3.17578,0.5293c-0.7275,0 -1.32422,0.59476 -1.32422,1.32226c0,0.7275 0.59672,1.32422 1.32422,1.32422c0.7275,0 1.32227,-0.59672 1.32227,-1.32422c0,-0.7275 -0.59477,-1.32226 -1.32227,-1.32226zm0,0.52929c0.44152,0 0.79297,0.35146 0.79297,0.79297c0,0.44152 -0.35145,0.79492 -0.79297,0.79492c-0.44152,0 -0.79492,-0.3534 -0.79492,-0.79492c0,-0.44151 0.3534,-0.79297 0.79492,-0.79297z"/>
  <path clip-rule="nonzero" fill="#131319" fill-rule="nonzero" stroke-width="0.529167" stroke-linecap="round" stroke-linejoin="round" stroke-miterlimit="4" stroke-dashoffset="0" id="circle1796-2" d="m3.17578,3.43945c-1.23297,0 -2.30572,0.85459 -2.58008,2.05664a0.26461,0.26461 0 1 0 0.51563,0.11914c0.22007,-0.96422 1.07543,-1.64648 2.06445,-1.64648c0.49453,0 0.95321,0.16972 1.31836,0.46094a0.26461,0.26461 0 1 0 0.33008,-0.41211c-0.4561,-0.36375 -1.03193,-0.57813 -1.64844,-0.57813z"/>
  <path clip-rule="nonzero" fill="#ffc956" fill-rule="nonzero" stroke-width="0.529167" stroke-linecap="round" stroke-linejoin="round" stroke-miterlimit="4" stroke-dashoffset="0" id="path1835" d="m5.55078,4.49609a0.26461,0.26461 0 0 0 -0.18164,0.08008l-0.60742,0.60547l-0.07617,-0.07617a0.26461,0.26461 0 1 0 -0.375,0.37305l0.26562,0.26562a0.26461,0.26461 0 0 0 0.37305,0l0.79492,-0.79492a0.26461,0.26461 0 0 0 -0.19336,-0.45313z"/>
 </g>
</svg>