<svg width="6.3499998" height="6.3499998" xmlns="http://www.w3.org/2000/svg">

 <g>
  <title>background</title>
  <rect fill="none" id="canvas_background" height="402" width="582" y="-1" x="-1"/>
 </g>
 <g>
  <title>Layer 1</title>
  <path clip-rule="nonzero" fill="#ffc956" fill-rule="nonzero" stroke-width="0.529167" stroke-linecap="round" stroke-linejoin="round" stroke-miterlimit="4" stroke-dashoffset="0" id="path1794" d="m3.1758,0.5293c-0.7275,0 -1.32422,0.59476 -1.32422,1.32226c0,0.7275 0.59672,1.32422 1.32422,1.32422c0.7275,0 1.32226,-0.59672 1.32226,-1.32422c0,-0.7275 -0.59476,-1.32226 -1.32226,-1.32226zm0,0.52929c0.44151,0 0.79296,0.35146 0.79296,0.79297c0,0.44152 -0.35145,0.79492 -0.79296,0.79492c-0.44152,0 -0.79493,-0.3534 -0.79493,-0.79492c0,-0.44151 0.35341,-0.79297 0.79493,-0.79297z"/>
  <path clip-rule="nonzero" fill="#161621" fill-rule="nonzero" stroke-width="0.529167" stroke-linecap="round" stroke-linejoin="round" stroke-miterlimit="4" stroke-dashoffset="0" id="circle1796" d="m3.17502,3.43958c-1.23298,0 -2.30534,0.85518 -2.57969,2.05724a0.26476,0.26476 0 1 0 0.51625,0.11782c0.22007,-0.96422 1.07441,-1.64589 2.06344,-1.64589c0.98906,0 1.8434,0.68162 2.06343,1.64589a0.26476,0.26476 0 1 0 0.51625,-0.11782c-0.27431,-1.20212 -1.34667,-2.05724 -2.57968,-2.05724z"/>
 </g>
</svg>